<svg width="75" height="15" viewBox="0 0 75 15" fill="none" xmlns="http://www.w3.org/2000/svg">
<path d="M3.02568 -4.48227e-05V14.5454H0.000111014V-4.48227e-05H3.02568ZM10.4209 14.7585C9.29876 14.7585 8.33285 14.5312 7.52319 14.0767C6.71827 13.6174 6.098 12.9687 5.6624 12.1306C5.22679 11.2878 5.00899 10.2911 5.00899 9.14058C5.00899 8.01842 5.22679 7.03357 5.6624 6.18604C6.098 5.3385 6.71117 4.67799 7.50189 4.2045C8.29734 3.73102 9.23011 3.49427 10.3002 3.49427C11.0199 3.49427 11.6899 3.61028 12.3101 3.84229C12.9351 4.06956 13.4796 4.41283 13.9436 4.87211C14.4124 5.33139 14.777 5.90905 15.0374 6.60507C15.2978 7.29636 15.428 8.10602 15.428 9.03405V9.86501H6.21638V7.99001H12.58C12.58 7.55441 12.4853 7.16852 12.2959 6.83234C12.1065 6.49617 11.8437 6.23338 11.5076 6.04399C11.1761 5.84986 10.7902 5.7528 10.3499 5.7528C9.89062 5.7528 9.48342 5.85933 9.12831 6.0724C8.77793 6.28073 8.50331 6.56246 8.30444 6.91757C8.10558 7.26795 8.00378 7.65857 7.99905 8.08944V9.87211C7.99905 10.4119 8.09848 10.8783 8.29734 11.2713C8.50094 11.6643 8.7874 11.9673 9.15672 12.1804C9.52603 12.3934 9.96401 12.5 10.4706 12.5C10.8068 12.5 11.1146 12.4526 11.3939 12.3579C11.6733 12.2632 11.9124 12.1212 12.1113 11.9318C12.3101 11.7424 12.4616 11.5104 12.5658 11.2358L15.3641 11.4204C15.2221 12.0928 14.9309 12.6799 14.4905 13.1818C14.0549 13.6789 13.4915 14.0672 12.8002 14.3465C12.1136 14.6212 11.3205 14.7585 10.4209 14.7585ZM20.5133 14.7514C19.8172 14.7514 19.197 14.6306 18.6525 14.3892C18.1079 14.1429 17.6771 13.7807 17.3598 13.3025C17.0473 12.8196 16.8911 12.2182 16.8911 11.4985C16.8911 10.8925 17.0024 10.3835 17.2249 9.97155C17.4474 9.55961 17.7505 9.22818 18.134 8.97723C18.5175 8.72628 18.9531 8.53689 19.4408 8.40905C19.9332 8.28121 20.4493 8.19124 20.9891 8.13916C21.6236 8.07287 22.1349 8.01132 22.5232 7.9545C22.9115 7.89295 23.1932 7.80299 23.3684 7.68461C23.5436 7.56624 23.6311 7.39105 23.6311 7.15905V7.11643C23.6311 6.66662 23.4891 6.31861 23.205 6.0724C22.9257 5.82619 22.5279 5.70308 22.0118 5.70308C21.4673 5.70308 21.0341 5.82382 20.7121 6.0653C20.3901 6.30204 20.1771 6.60033 20.0729 6.96018L17.2746 6.73291C17.4167 6.07003 17.696 5.49711 18.1127 5.01416C18.5293 4.52647 19.0668 4.15242 19.7249 3.892C20.3878 3.62685 21.1548 3.49427 22.026 3.49427C22.6321 3.49427 23.2121 3.5653 23.7661 3.70734C24.3248 3.84939 24.8196 4.06956 25.2505 4.36785C25.6861 4.66615 26.0293 5.04967 26.2803 5.51842C26.5312 5.98244 26.6567 6.53878 26.6567 7.18746V14.5454H23.7874V13.0326H23.7022C23.527 13.3735 23.2926 13.6742 22.999 13.9346C22.7055 14.1903 22.3527 14.3915 21.9408 14.5383C21.5289 14.6804 21.053 14.7514 20.5133 14.7514ZM21.3797 12.6633C21.8248 12.6633 22.2178 12.5757 22.5587 12.4005C22.8996 12.2206 23.1671 11.9791 23.3613 11.6761C23.5554 11.3731 23.6525 11.0298 23.6525 10.6463V9.48859C23.5578 9.55014 23.4275 9.60696 23.2618 9.65905C23.1008 9.70639 22.9186 9.75138 22.715 9.79399C22.5114 9.83187 22.3078 9.86738 22.1042 9.90052C21.9006 9.92893 21.7159 9.95497 21.5502 9.97865C21.1951 10.0307 20.8849 10.1136 20.6198 10.2272C20.3546 10.3409 20.1487 10.4947 20.0019 10.6889C19.8551 10.8783 19.7817 11.115 19.7817 11.3991C19.7817 11.811 19.9309 12.1259 20.2292 12.3437C20.5322 12.5568 20.9157 12.6633 21.3797 12.6633ZM32.0296 -4.48227e-05V14.5454H29.004V-4.48227e-05H32.0296ZM36.2217 14.7301C35.753 14.7301 35.3505 14.5643 35.0143 14.2329C34.6829 13.8967 34.5172 13.4943 34.5172 13.0255C34.5172 12.5615 34.6829 12.1638 35.0143 11.8323C35.3505 11.5009 35.753 11.3352 36.2217 11.3352C36.6762 11.3352 37.074 11.5009 37.4149 11.8323C37.7558 12.1638 37.9262 12.5615 37.9262 13.0255C37.9262 13.338 37.8458 13.6245 37.6848 13.8849C37.5285 14.1406 37.3226 14.3465 37.0669 14.5028C36.8112 14.6543 36.5295 14.7301 36.2217 14.7301ZM44.4302 14.723C43.6016 14.723 42.8511 14.5099 42.1787 14.0838C41.5111 13.6529 40.9808 13.0208 40.5878 12.1875C40.1996 11.3494 40.0054 10.3219 40.0054 9.10507C40.0054 7.85507 40.2067 6.81577 40.6091 5.98717C41.0116 5.15384 41.5466 4.53121 42.2142 4.11927C42.8866 3.70261 43.6229 3.49427 44.4231 3.49427C45.0338 3.49427 45.5428 3.59844 45.95 3.80677C46.362 4.01037 46.6934 4.26605 46.9444 4.57382C47.2 4.87685 47.3942 5.17514 47.5267 5.46871H47.6191V-4.48227e-05H50.6375V14.5454H47.6546V12.7983H47.5267C47.3847 13.1013 47.1835 13.4019 46.9231 13.7002C46.6674 13.9938 46.3336 14.2376 45.9216 14.4318C45.5144 14.6259 45.0173 14.723 44.4302 14.723ZM45.389 12.3153C45.8767 12.3153 46.2886 12.1827 46.6248 11.9176C46.9657 11.6477 47.2261 11.2713 47.406 10.7883C47.5907 10.3054 47.683 9.73954 47.683 9.09086C47.683 8.44219 47.593 7.87874 47.4131 7.40052C47.2332 6.9223 46.9728 6.55299 46.6319 6.29257C46.2909 6.03215 45.8767 5.90194 45.389 5.90194C44.8918 5.90194 44.4728 6.03689 44.1319 6.30677C43.7909 6.57666 43.5329 6.95071 43.3577 7.42893C43.1825 7.90715 43.0949 8.46113 43.0949 9.09086C43.0949 9.72533 43.1825 10.2864 43.3577 10.7741C43.5376 11.2571 43.7957 11.6358 44.1319 11.9105C44.4728 12.1804 44.8918 12.3153 45.389 12.3153ZM58.0967 14.7585C56.9745 14.7585 56.0086 14.5312 55.199 14.0767C54.3941 13.6174 53.7738 12.9687 53.3382 12.1306C52.9026 11.2878 52.6848 10.2911 52.6848 9.14058C52.6848 8.01842 52.9026 7.03357 53.3382 6.18604C53.7738 5.3385 54.3869 4.67799 55.1777 4.2045C55.9731 3.73102 56.9059 3.49427 57.976 3.49427C58.6957 3.49427 59.3656 3.61028 59.9859 3.84229C60.6109 4.06956 61.1554 4.41283 61.6194 4.87211C62.0882 5.33139 62.4528 5.90905 62.7132 6.60507C62.9736 7.29636 63.1038 8.10602 63.1038 9.03405V9.86501H53.8922V7.99001H60.2558C60.2558 7.55441 60.1611 7.16852 59.9717 6.83234C59.7823 6.49617 59.5195 6.23338 59.1833 6.04399C58.8519 5.84986 58.466 5.7528 58.0257 5.7528C57.5664 5.7528 57.1592 5.85933 56.8041 6.0724C56.4537 6.28073 56.1791 6.56246 55.9802 6.91757C55.7814 7.26795 55.6796 7.65857 55.6748 8.08944V9.87211C55.6748 10.4119 55.7743 10.8783 55.9731 11.2713C56.1767 11.6643 56.4632 11.9673 56.8325 12.1804C57.2018 12.3934 57.6398 12.5 58.1464 12.5C58.4826 12.5 58.7904 12.4526 59.0697 12.3579C59.3491 12.2632 59.5882 12.1212 59.787 11.9318C59.9859 11.7424 60.1374 11.5104 60.2416 11.2358L63.0399 11.4204C62.8978 12.0928 62.6066 12.6799 62.1663 13.1818C61.7307 13.6789 61.1673 14.0672 60.476 14.3465C59.7894 14.6212 58.9963 14.7585 58.0967 14.7585ZM74.9557 3.63632L71.1418 14.5454H67.7327L63.9188 3.63632H67.1148L69.3804 11.4417H69.4941L71.7526 3.63632H74.9557Z" fill="url(#paint0_linear_1_466)"/>
<defs>
<linearGradient id="paint0_linear_1_466" x1="-1.20728" y1="-6.45459" x2="16.7781" y2="43.0053" gradientUnits="userSpaceOnUse">
<stop stop-color="#1E3A5F"/>
<stop offset="1" stop-color="#D4A853"/>
</linearGradient>
</defs>
</svg>
