<svg xmlns="http://www.w3.org/2000/svg" xmlns:xlink="http://www.w3.org/1999/xlink" width="500" zoomAndPan="magnify" viewBox="0 0 375 374.999991" height="500" preserveAspectRatio="xMidYMid meet" version="1.0"><defs><clipPath id="c8597f9bee"><path d="M 71.710938 56 L 303.460938 56 L 303.460938 319 L 71.710938 319 Z M 71.710938 56 " clip-rule="nonzero"/></clipPath></defs><g clip-path="url(#c8597f9bee)"><path fill="#e44d26" d="M 92.746094 292.40625 L 71.644531 56.113281 L 303.527344 56.113281 L 282.40625 292.371094 L 187.4375 318.640625 Z M 92.746094 292.40625 " fill-opacity="1" fill-rule="nonzero"/></g><path fill="#f16529" d="M 264.316406 277.324219 L 282.371094 75.4375 L 187.585938 75.4375 L 187.585938 298.566406 Z M 264.316406 277.324219 " fill-opacity="1" fill-rule="nonzero"/><path fill="#ebebeb" d="M 187.484375 104.414062 L 114.789062 104.414062 L 122.621094 192.050781 L 187.585938 192.050781 L 187.585938 163.074219 L 149.171875 163.074219 L 146.519531 133.398438 L 187.585938 133.398438 L 187.585938 104.414062 Z M 187.585938 238.242188 L 187.460938 238.273438 L 155.132812 229.558594 L 153.078125 206.449219 L 123.917969 206.449219 L 127.988281 251.949219 L 187.453125 268.359375 L 187.585938 268.316406 Z M 187.585938 238.242188 " fill-opacity="1" fill-rule="nonzero"/><path fill="#ffffff" d="M 187.484375 192.050781 L 223.234375 192.050781 L 219.949219 229.625 L 187.566406 238.347656 L 187.566406 268.496094 L 247.082031 252.03125 L 255.054688 163.058594 L 187.585938 163.058594 Z M 259.507812 112.191406 L 260.199219 104.414062 L 187.46875 104.414062 L 187.46875 133.390625 L 257.585938 133.390625 L 258.160156 126.875 Z M 259.507812 112.191406 " fill-opacity="1" fill-rule="nonzero"/><path fill="#3747d6" d="M 16.96875 0.847656 C 12.101562 0.847656 7.46875 2.9375 4.246094 6.585938 C 1.027344 10.234375 -0.472656 15.09375 0.132812 19.921875 L 34.066406 291.414062 C 34.773438 297.042969 38.242188 301.949219 43.316406 304.488281 L 179.0625 372.359375 C 183.839844 374.75 189.464844 374.75 194.238281 372.359375 L 329.988281 304.488281 C 335.0625 301.949219 338.53125 297.042969 339.234375 291.414062 L 373.171875 19.921875 C 373.777344 15.09375 372.277344 10.234375 369.054688 6.585938 C 365.835938 2.9375 361.203125 0.847656 356.335938 0.847656 Z M 16.96875 0.847656 " fill-opacity="1" fill-rule="nonzero"/><path fill="#90caea" d="M 84.84375 51.753906 L 305.429688 51.753906 C 313.300781 51.753906 320.136719 57.164062 321.945312 64.824219 C 323.753906 72.480469 320.058594 80.378906 313.019531 83.898438 L 190.65625 145.078125 L 288.464844 145.078125 C 293.496094 145.078125 298.265625 147.3125 301.488281 151.175781 C 304.714844 155.039062 306.058594 160.132812 305.15625 165.082031 L 288.1875 258.410156 C 287.316406 263.214844 284.414062 267.410156 280.226562 269.921875 L 195.382812 320.828125 C 190.007812 324.050781 183.296875 324.050781 177.921875 320.828125 L 93.082031 269.921875 C 88.816406 267.363281 85.890625 263.066406 85.074219 258.164062 L 76.589844 207.257812 L 110.0625 201.679688 L 117.261719 244.855469 L 186.652344 286.488281 L 256.175781 244.777344 L 268.132812 179.015625 L 118.78125 179.015625 C 110.910156 179.015625 104.074219 173.605469 102.265625 165.945312 C 100.457031 158.289062 104.152344 150.390625 111.191406 146.871094 L 233.550781 85.691406 L 84.84375 85.691406 Z M 84.84375 51.753906 " fill-opacity="1" fill-rule="evenodd"/></svg>