<svg xmlns="http://www.w3.org/2000/svg" xmlns:xlink="http://www.w3.org/1999/xlink" width="500" zoomAndPan="magnify" viewBox="0 0 375 374.999991" height="500" preserveAspectRatio="xMidYMid meet" version="1.0"><defs><clipPath id="2c716fe728"><path d="M 77.289062 62 L 297.789062 62 L 297.789062 312.992188 L 77.289062 312.992188 Z M 77.289062 62 " clip-rule="nonzero"/></clipPath></defs><g clip-path="url(#2c716fe728)"><path fill="#e44d26" d="M 97.304688 287.328125 L 77.226562 62.441406 L 297.851562 62.441406 L 277.757812 287.296875 L 187.398438 312.296875 Z M 97.304688 287.328125 " fill-opacity="1" fill-rule="nonzero"/></g><path fill="#f16529" d="M 260.546875 272.976562 L 277.726562 80.828125 L 187.539062 80.828125 L 187.539062 293.191406 Z M 260.546875 272.976562 " fill-opacity="1" fill-rule="nonzero"/><path fill="#ebebeb" d="M 187.445312 108.410156 L 118.277344 108.410156 L 125.726562 191.816406 L 187.539062 191.816406 L 187.539062 164.238281 L 150.992188 164.238281 L 148.464844 135.996094 L 187.539062 135.996094 L 187.539062 108.410156 Z M 187.539062 235.777344 L 187.421875 235.808594 L 156.660156 227.515625 L 154.707031 205.519531 L 126.964844 205.519531 L 130.835938 248.824219 L 187.414062 264.441406 L 187.539062 264.402344 Z M 187.539062 235.777344 " fill-opacity="1" fill-rule="nonzero"/><path fill="#ffffff" d="M 187.445312 191.816406 L 221.457031 191.816406 L 218.332031 227.578125 L 187.523438 235.878906 L 187.523438 264.574219 L 244.148438 248.902344 L 251.734375 164.222656 L 187.539062 164.222656 Z M 255.972656 115.8125 L 256.628906 108.410156 L 187.429688 108.410156 L 187.429688 135.988281 L 254.140625 135.988281 L 254.691406 129.789062 Z M 255.972656 115.8125 " fill-opacity="1" fill-rule="nonzero"/><path fill="#ffc44d" d="M 13.953125 -0.871094 C 10.203125 -0.871094 6.628906 0.738281 4.148438 3.550781 C 1.664062 6.363281 0.507812 10.109375 0.972656 13.832031 L 35.855469 292.902344 C 36.398438 297.242188 39.074219 301.023438 42.988281 302.980469 L 182.523438 372.746094 C 186.203125 374.589844 190.539062 374.589844 194.222656 372.746094 L 333.757812 302.980469 C 337.667969 301.023438 340.34375 297.242188 340.886719 292.902344 L 375.769531 13.832031 C 376.238281 10.109375 375.082031 6.363281 372.597656 3.550781 C 370.113281 0.738281 366.542969 -0.871094 362.789062 -0.871094 Z M 13.953125 -0.871094 " fill-opacity="1" fill-rule="nonzero"/><path fill="#e5b045" d="M 188.371094 -0.871094 L 188.371094 374.128906 C 186.367188 374.128906 184.363281 373.667969 182.523438 372.746094 L 42.988281 302.980469 C 39.074219 301.023438 36.398438 297.242188 35.855469 292.902344 L 0.972656 13.832031 C 0.507812 10.109375 1.664062 6.363281 4.148438 3.550781 C 6.628906 0.738281 10.203125 -0.871094 13.953125 -0.871094 Z M 188.371094 -0.871094 " fill-opacity="1" fill-rule="evenodd"/><path fill="#eceff1" d="M 74.0625 55.714844 C 76.539062 53 80.046875 51.453125 83.722656 51.453125 L 293.023438 51.453125 C 300.246094 51.453125 306.105469 57.308594 306.105469 64.535156 C 306.105469 71.757812 300.246094 77.617188 293.023438 77.617188 L 98.046875 77.617188 L 104.386719 147.382812 L 293.023438 147.382812 C 296.902344 147.382812 300.582031 149.105469 303.066406 152.082031 C 305.550781 155.0625 306.585938 158.988281 305.894531 162.804688 L 288.453125 258.734375 C 287.777344 262.441406 285.539062 265.675781 282.3125 267.613281 L 195.101562 319.9375 C 190.960938 322.421875 185.785156 322.421875 181.640625 319.9375 L 94.433594 267.613281 C 90.851562 265.464844 88.511719 261.738281 88.136719 257.578125 L 70.691406 65.71875 C 70.359375 62.058594 71.582031 58.425781 74.0625 55.714844 Z M 106.765625 173.546875 L 113.589844 248.59375 L 188.371094 293.464844 L 263.773438 248.226562 L 277.347656 173.546875 Z M 106.765625 173.546875 " fill-opacity="1" fill-rule="evenodd"/><path fill="#cfd8dc" d="M 188.371094 77.617188 L 98.046875 77.617188 L 104.386719 147.382812 L 188.371094 147.382812 L 188.371094 173.546875 L 106.765625 173.546875 L 113.589844 248.59375 L 188.371094 293.464844 L 188.371094 321.800781 C 186.042969 321.800781 183.714844 321.179688 181.640625 319.9375 L 94.433594 267.613281 C 90.851562 265.464844 88.511719 261.738281 88.136719 257.578125 L 70.691406 65.71875 C 70.359375 62.058594 71.582031 58.425781 74.0625 55.714844 C 76.539062 53 80.046875 51.453125 83.722656 51.453125 L 188.371094 51.453125 Z M 188.371094 77.617188 " fill-opacity="1" fill-rule="evenodd"/></svg>