<svg xmlns="http://www.w3.org/2000/svg" xmlns:xlink="http://www.w3.org/1999/xlink" width="500" zoomAndPan="magnify" viewBox="0 0 375 374.999991" height="500" preserveAspectRatio="xMidYMid meet" version="1.0"><defs><clipPath id="cdb81a35a7"><path d="M 37.5 37.5 L 337.5 37.5 L 337.5 337.5 L 37.5 337.5 Z M 37.5 37.5 " clip-rule="nonzero"/></clipPath><clipPath id="9b74ebef0a"><path d="M 187.5 37.5 C 104.65625 37.5 37.5 104.65625 37.5 187.5 C 37.5 270.34375 104.65625 337.5 187.5 337.5 C 270.34375 337.5 337.5 270.34375 337.5 187.5 C 337.5 104.65625 270.34375 37.5 187.5 37.5 Z M 187.5 37.5 " clip-rule="nonzero"/></clipPath></defs><g clip-path="url(#cdb81a35a7)"><g clip-path="url(#9b74ebef0a)"><path fill="#000000" d="M 37.5 37.5 L 337.5 37.5 L 337.5 337.5 L 37.5 337.5 Z M 37.5 37.5 " fill-opacity="1" fill-rule="nonzero"/></g></g><path fill="#ffffff" d="M 114.75 113.871094 C 115.273438 105.320312 117.492188 101.609375 123.859375 98.621094 C 130.710938 95.40625 141.515625 96.902344 154.226562 102.824219 C 159.699219 105.375 160.257812 105.425781 169.851562 104.292969 C 182.605469 102.789062 199.027344 102.792969 210.800781 104.308594 C 219.703125 105.453125 220.285156 105.394531 225.773438 102.835938 C 243.816406 94.429688 258.0625 94.984375 263.222656 104.28125 C 265.800781 108.921875 266.277344 120.972656 264.28125 130.90625 C 263.175781 136.414062 263.292969 137.101562 265.957031 140.71875 C 284.722656 166.148438 271.203125 207.371094 239.050781 222.757812 C 236.59375 223.933594 234.519531 224.664062 232.832031 225.257812 C 227.640625 227.078125 226.066406 227.632812 227.972656 236.019531 C 228.894531 240.050781 230 250.082031 230.433594 258.308594 C 231.21875 273.179688 231.210938 273.285156 228.375 276.320312 C 224.511719 280.449219 218.949219 280.515625 215.183594 276.484375 C 212.726562 273.855469 212.488281 272.613281 212.488281 262.472656 C 212.488281 247.480469 210.699219 237.519531 206.480469 228.980469 C 201.464844 218.824219 205.183594 215.035156 216.660156 212.761719 C 232.609375 209.605469 245.074219 200.550781 252.015625 187.0625 C 258.617188 174.246094 259.613281 156.53125 247.675781 145.757812 C 244.277344 142.046875 244.042969 138.6875 246.464844 128.550781 C 247.371094 124.761719 248.132812 119.875 248.152344 117.6875 C 248.1875 114.238281 247.847656 113.714844 245.539062 113.714844 C 244.082031 113.714844 238.507812 115.664062 233.15625 118.050781 L 224.613281 121.859375 C 223.839844 122.207031 222.96875 122.339844 222.113281 122.246094 C 200.390625 119.957031 179.753906 119.921875 157.929688 122.257812 C 157.070312 122.351562 156.195312 122.21875 155.417969 121.871094 L 146.878906 118.0625 C 141.53125 115.671875 135.957031 113.71875 134.496094 113.71875 C 131.125 113.71875 131.074219 116.007812 134.148438 129.609375 C 136.027344 137.917969 137.289062 139.769531 131.859375 146.414062 C 123.726562 156.371094 121.695312 168.738281 126.054688 181.726562 C 131.554688 198.101562 145.015625 209.160156 163.949219 212.851562 C 175.359375 215.074219 178.34375 217.976562 173.984375 230.015625 C 170.554688 239.484375 168.382812 241.925781 163.398438 241.925781 C 156.691406 241.925781 152.492188 236.582031 154.804688 230.992188 C 155.820312 228.527344 155.515625 228.265625 149.238281 226.15625 C 130.054688 219.722656 115.386719 205.308594 108.679688 186.300781 C 103.5 171.609375 105.777344 152.484375 114.09375 140.925781 C 116.925781 136.992188 116.96875 136.65625 115.648438 129.125 C 114.902344 124.859375 114.496094 117.996094 114.75 113.871094 Z M 114.75 113.871094 " fill-opacity="1" fill-rule="nonzero"/><path fill="#ffffff" d="M 108.050781 221.34375 C 105.289062 217.53125 99.683594 216.5 95.542969 219.042969 C 91.394531 221.585938 90.277344 226.734375 93.039062 230.546875 C 95.082031 233.363281 97.523438 235.675781 99.59375 237.582031 C 99.972656 237.933594 100.347656 238.273438 100.710938 238.601562 C 102.445312 240.191406 103.976562 241.589844 105.519531 243.253906 C 108.925781 246.933594 112.320312 251.882812 114.253906 260.765625 C 115.113281 264.722656 118.207031 266.851562 119.917969 267.785156 C 121.777344 268.796875 123.804688 269.386719 125.476562 269.777344 C 128.894531 270.570312 133.042969 270.980469 136.976562 271.222656 C 141.300781 271.484375 145.980469 271.570312 150.167969 271.59375 C 150.171875 276.171875 154.207031 279.886719 159.1875 279.886719 C 164.167969 279.886719 168.207031 276.171875 168.207031 271.589844 L 168.207031 263.296875 C 168.207031 258.714844 164.167969 255 159.1875 255 C 158.339844 255 157.417969 255.003906 156.441406 255.003906 C 151.148438 255.019531 144.25 255.039062 138.171875 254.667969 C 135.238281 254.488281 132.832031 254.238281 131.0625 253.929688 C 128.34375 244.105469 123.949219 237.566406 119.257812 232.507812 C 117.183594 230.265625 115.039062 228.308594 113.292969 226.714844 C 112.964844 226.421875 112.652344 226.132812 112.355469 225.859375 C 110.339844 223.992188 109.019531 222.675781 108.050781 221.34375 Z M 108.050781 221.34375 " fill-opacity="1" fill-rule="nonzero"/></svg>