<svg xmlns="http://www.w3.org/2000/svg" xmlns:xlink="http://www.w3.org/1999/xlink" width="500" zoomAndPan="magnify" viewBox="0 0 375 374.999991" height="500" preserveAspectRatio="xMidYMid meet" version="1.0"><path fill="#8cc84b" d="M 171.925781 4.949219 C 181.195312 -0.300781 193.015625 -0.324219 202.054688 4.949219 L 340.46875 82.976562 C 349.125 87.84375 354.917969 97.496094 354.835938 107.472656 L 354.835938 263.921875 C 354.894531 274.316406 348.53125 284.179688 339.402344 288.953125 L 201.730469 366.621094 C 200.558594 367.269531 199.347656 367.835938 198.101562 368.324219 C 196.855469 368.808594 195.578125 369.210938 194.277344 369.527344 C 192.976562 369.84375 191.660156 370.074219 190.328125 370.214844 C 188.996094 370.355469 187.664062 370.40625 186.324219 370.371094 C 184.984375 370.332031 183.65625 370.207031 182.332031 369.992188 C 181.011719 369.777344 179.710938 369.476562 178.429688 369.089844 C 177.148438 368.703125 175.898438 368.230469 174.679688 367.675781 C 173.460938 367.121094 172.28125 366.488281 171.148438 365.777344 L 129.835938 341.902344 C 127.019531 340.222656 123.855469 338.890625 121.863281 336.167969 C 123.625 333.804688 126.753906 333.503906 129.304688 332.460938 C 135.050781 330.628906 140.3125 327.824219 145.597656 324.855469 C 146.929688 323.929688 148.5625 324.277344 149.835938 325.113281 L 185.066406 345.484375 C 187.582031 346.933594 190.128906 345.019531 192.285156 343.804688 L 327.464844 267.515625 C 329.132812 266.703125 330.0625 264.941406 329.921875 263.113281 L 329.921875 108.167969 C 330.105469 106.082031 328.914062 104.183594 327.023438 103.335938 L 189.703125 26.003906 C 189.304688 25.730469 188.878906 25.523438 188.417969 25.378906 C 187.960938 25.234375 187.492188 25.164062 187.007812 25.160156 C 186.527344 25.160156 186.058594 25.230469 185.597656 25.371094 C 185.136719 25.515625 184.710938 25.722656 184.3125 25.992188 L 47.1875 103.488281 C 45.332031 104.332031 44.058594 106.210938 44.289062 108.296875 L 44.289062 263.238281 C 44.128906 265.070312 45.101562 266.796875 46.78125 267.585938 L 83.425781 288.269531 C 90.308594 291.980469 98.753906 294.066406 106.335938 291.34375 C 107.160156 291.03125 107.957031 290.660156 108.722656 290.226562 C 109.492188 289.796875 110.222656 289.308594 110.914062 288.765625 C 111.609375 288.222656 112.257812 287.632812 112.863281 286.988281 C 113.464844 286.347656 114.019531 285.664062 114.515625 284.941406 C 115.015625 284.214844 115.460938 283.457031 115.84375 282.664062 C 116.230469 281.871094 116.550781 281.054688 116.8125 280.210938 C 117.070312 279.371094 117.265625 278.511719 117.398438 277.640625 C 117.527344 276.769531 117.589844 275.894531 117.585938 275.011719 L 117.621094 121 C 117.460938 118.714844 119.613281 116.828125 121.828125 117.058594 L 139.441406 117.058594 C 141.761719 117 143.578125 119.457031 143.265625 121.75 L 143.230469 276.738281 C 143.242188 290.507812 137.589844 305.480469 124.851562 312.238281 C 109.164062 320.347656 89.761719 318.644531 74.257812 310.847656 L 34.855469 289.058594 C 25.585938 284.421875 19.363281 274.410156 19.421875 264.027344 L 19.421875 107.578125 C 19.429688 106.3125 19.523438 105.054688 19.703125 103.800781 C 19.878906 102.546875 20.140625 101.3125 20.480469 100.09375 C 20.824219 98.875 21.242188 97.683594 21.746094 96.523438 C 22.246094 95.359375 22.820312 94.234375 23.46875 93.148438 C 24.121094 92.0625 24.839844 91.027344 25.628906 90.035156 C 26.417969 89.046875 27.265625 88.113281 28.179688 87.234375 C 29.09375 86.359375 30.058594 85.546875 31.078125 84.796875 C 32.101562 84.050781 33.167969 83.375 34.277344 82.765625 Z M 211.835938 113.394531 C 231.847656 112.238281 253.277344 112.632812 271.285156 122.492188 C 285.226562 130.050781 292.953125 145.902344 293.210938 161.410156 C 292.816406 163.496094 290.636719 164.652344 288.644531 164.503906 C 282.847656 164.492188 277.03125 164.582031 271.214844 164.46875 C 268.746094 164.5625 267.320312 162.289062 267.007812 160.109375 C 265.339844 152.695312 261.296875 145.359375 254.320312 141.777344 C 243.609375 136.410156 231.1875 136.679688 219.507812 136.792969 C 210.976562 137.257812 201.8125 137.988281 194.59375 142.992188 C 189.03125 146.796875 187.359375 154.582031 189.34375 160.632812 C 191.195312 165.070312 196.332031 166.496094 200.515625 167.816406 C 224.640625 174.121094 250.195312 173.613281 273.867188 181.804688 C 283.660156 185.1875 293.246094 191.769531 296.605469 202.027344 C 300.984375 215.773438 299.074219 232.203125 289.304688 243.238281 C 281.378906 252.324219 269.835938 257.144531 258.304688 259.949219 C 242.972656 263.367188 227.074219 263.449219 211.511719 261.917969 C 196.875 260.25 181.648438 256.402344 170.347656 246.433594 C 160.683594 238.046875 155.980469 224.972656 156.441406 212.363281 C 156.558594 210.230469 158.679688 208.75 160.730469 208.921875 L 178.113281 208.921875 C 180.453125 208.761719 182.167969 210.777344 182.285156 212.980469 C 183.363281 219.933594 186.015625 227.464844 192.183594 231.519531 C 204.070312 239.191406 218.984375 238.660156 232.589844 238.878906 C 243.867188 238.382812 256.519531 238.230469 265.734375 230.765625 C 270.601562 226.515625 272.027344 219.410156 270.714844 213.292969 C 269.292969 208.121094 263.761719 205.722656 259.128906 204.019531 C 235.3125 196.488281 209.472656 199.222656 185.890625 190.695312 C 176.316406 187.308594 167.058594 180.914062 163.382812 171.074219 C 158.25 157.167969 160.601562 139.933594 171.414062 129.273438 C 181.84375 118.667969 197.140625 114.578125 211.628906 113.117188 Z M 211.835938 113.394531 " fill-opacity="1" fill-rule="nonzero"/></svg>